<?xml version="1.0" standalone="no"?>
<!DOCTYPE svg PUBLIC "-//W3C//DTD SVG 20010904//EN"
 "http://www.w3.org/TR/2001/REC-SVG-20010904/DTD/svg10.dtd">
<svg version="1.0" xmlns="http://www.w3.org/2000/svg"
 width="800.000000pt" height="800.000000pt" viewBox="0 0 800.000000 800.000000"
 preserveAspectRatio="xMidYMid meet">
<metadata>
Created by potrace 1.14, written by Peter Selinger 2001-2017
</metadata>
<g transform="translate(0.000000,800.000000) scale(0.100000,-0.100000)"
fill="#000000" stroke="none">
<path d="M2019 6147 c-105 -30 -200 -111 -252 -217 -30 -60 -32 -72 -32 -165
0 -174 -56 -106 908 -1097 461 -473 835 -864 830 -868 -4 -4 -243 -112 -531
-239 l-523 -230 -751 405 c-414 223 -773 412 -799 420 -34 11 -76 15 -142 12
-84 -3 -101 -7 -169 -41 -204 -100 -293 -344 -200 -548 13 -28 284 -342 766
-886 411 -464 751 -843 756 -843 9 0 5348 2355 5480 2418 88 41 208 155 253
239 36 68 67 191 67 268 0 77 -31 200 -67 268 -38 72 -164 195 -239 235 -109
57 -269 78 -382 51 -75 -18 -386 -149 -988 -415 -308 -136 -564 -247 -570
-247 -5 0 -64 25 -130 55 -65 31 -787 365 -1603 743 l-1483 687 -77 4 c-44 2
-95 -1 -122 -9z m3589 -1823 c167 -69 180 -309 20 -388 -151 -75 -318 27 -318
195 0 49 42 132 81 161 65 49 149 61 217 32z m-673 -312 c91 -44 138 -145 115
-242 -22 -92 -118 -170 -210 -170 -90 0 -187 77 -209 166 -45 177 141 327 304
246z m-687 -288 c147 -61 178 -261 56 -362 -133 -110 -333 -30 -351 140 -7 68
9 118 50 165 60 68 163 92 245 57z"/>
</g>
</svg>
