<svg xmlns="http://www.w3.org/2000/svg" version="1.1" xmlns:xlink="http://www.w3.org/1999/xlink" xmlns:svgjs="http://svgjs.dev/svgjs" width="1000" height="1000" viewBox="0 0 1000 1000"><rect width="1000" height="1000" fill="#ffffff"></rect><g transform="matrix(0.7,0,0,0.7,150,150.0000000000001)"><svg viewBox="0 0 280 280" data-background-color="#ffffff" preserveAspectRatio="xMidYMid meet" height="1000" width="1000" xmlns="http://www.w3.org/2000/svg" xmlns:xlink="http://www.w3.org/1999/xlink"><g id="tight-bounds" transform="matrix(1,0,0,1,0,-5.684341886080802e-14)"><svg viewBox="0 0 280 280" height="280" width="280"><g><svg viewBox="0 0 280 280" height="280" width="280"><g><svg viewBox="0 0 280 280" height="280" width="280"><g id="textblocktransform"><svg viewBox="0 0 280 280" height="280" width="280" id="textblock"><g><svg viewBox="0 0 280 280" height="280" width="280"><g transform="matrix(1,0,0,1,57.50420886156945,57.50420886156945)"><svg viewBox="0 0 164.9915822768611 164.9915822768611" height="164.9915822768611" width="164.9915822768611"><g><circle r="82" cx="82.49579113843055" cy="82.49579113843055" fill="#000000" data-fill-palette-color="accent"></circle><svg xmlns="http://www.w3.org/2000/svg" xmlns:xlink="http://www.w3.org/1999/xlink" version="1.1" x="24.74873734152917" y="24.748737341529164" viewBox="7.487322807312012 6.065999984741211 84.02568054199219 86.87999725341797" enable-background="new 0 0 100 100" xml:space="preserve" height="115.49410759380275" width="115.49410759380275" class="icon-o-0" data-fill-palette-color="quaternary" id="o-0"><rect x="34.571" y="16.321" fill="#ffffff" width="5.716" height="5.716" data-fill-palette-color="quaternary"></rect><rect x="34.571" y="28.368" fill="#ffffff" width="5.716" height="5.716" data-fill-palette-color="quaternary"></rect><rect x="34.571" y="40.416" fill="#ffffff" width="5.716" height="5.716" data-fill-palette-color="quaternary"></rect><rect x="34.571" y="52.464" fill="#ffffff" width="5.716" height="5.716" data-fill-palette-color="quaternary"></rect><rect x="80.349" y="16.321" fill="#ffffff" width="5.716" height="5.716" data-fill-palette-color="quaternary"></rect><rect x="80.349" y="28.368" fill="#ffffff" width="5.716" height="5.716" data-fill-palette-color="quaternary"></rect><rect x="80.349" y="40.416" fill="#ffffff" width="5.716" height="5.716" data-fill-palette-color="quaternary"></rect><rect x="80.349" y="52.464" fill="#ffffff" width="5.716" height="5.716" data-fill-palette-color="quaternary"></rect><path fill="#ffffff" d="M52.324 50.356c-0.188 0-0.375-0.048-0.546-0.142-0.354-0.199-0.572-0.572-0.572-0.975V26.271c0-0.404 0.218-0.777 0.572-0.975 0.354-0.194 0.786-0.19 1.13 0.024l18.704 11.483c0.332 0.203 0.532 0.563 0.532 0.951 0 0.389-0.201 0.749-0.532 0.951L52.909 50.19C52.73 50.301 52.527 50.356 52.324 50.356zM53.442 28.268v18.974l15.45-9.488L53.442 28.268z" data-fill-palette-color="quaternary"></path><path fill="#ffffff" d="M81.978 8.301c4.025 0 7.3 3.275 7.3 7.3V59.3c0 4.025-3.275 7.3-7.3 7.3H38.279c-4.025 0-7.3-3.275-7.3-7.3V15.601c0-4.025 3.275-7.3 7.3-7.3H81.978M81.978 6.066H38.279c-5.266 0-9.535 4.269-9.535 9.535V59.3c0 5.266 4.269 9.535 9.535 9.535h43.699c5.266 0 9.535-4.269 9.535-9.535V15.601C91.512 10.335 87.243 6.066 81.978 6.066L81.978 6.066z" data-fill-palette-color="quaternary"></path><path fill="#ffffff" d="M74.63 71.069h-2.299l0.225 0.924c0.478 1.957 0.164 3.985-0.884 5.706-1.048 1.722-2.704 2.931-4.661 3.409l-38.573 9.386c-1.953 0.474-3.98 0.164-5.706-0.886-1.722-1.047-2.931-2.704-3.409-4.661l-9.383-38.57c-0.478-1.957-0.161-3.985 0.886-5.706 1.047-1.722 2.704-2.931 4.661-3.409l11.023-2.682V32.28l-11.551 2.809c-2.538 0.618-4.683 2.187-6.043 4.419-1.357 2.23-1.765 4.858-1.148 7.396l9.386 38.57c0.615 2.538 2.184 4.683 4.417 6.043 1.552 0.943 3.293 1.429 5.065 1.429 0.775 0 1.558-0.094 2.331-0.284l38.573-9.386c2.538-0.615 4.683-2.184 6.04-4.417 1.36-2.23 1.765-4.858 1.148-7.396L74.63 71.069z" data-fill-palette-color="quaternary"></path></svg></g></svg></g><path d="M29.022 181.961l-16.665 6.188c-0.15-0.653-0.558-1.876-1.225-3.669v0l-0.582-1.57 26.174-9.719c0.26 0.853 0.577 1.784 0.952 2.793 0.375 1.009 0.689 1.703 0.944 2.083v0l-8.751 10.754 13.552 2.175c0.055 0.454 0.301 1.27 0.738 2.447 0.437 1.177 0.837 2.177 1.199 2.999v0l-26.175 9.719-0.582-1.569c-0.666-1.794-1.156-2.99-1.471-3.589v0l17.58-6.528-13.854-2.158zM38.318 227.768c0.026-1.757 0.413-3.482 1.161-5.175 0.748-1.693 1.866-3.232 3.355-4.616 1.484-1.38 3.121-2.439 4.911-3.178 1.794-0.734 3.631-1.104 5.511-1.111 1.876-0.012 3.726 0.364 5.551 1.126 1.824 0.762 3.496 1.96 5.016 3.595v0c2.619 2.817 3.939 6.017 3.958 9.599v0c0.02 3.836-1.585 7.256-4.815 10.26v0c-3.128 2.909-6.717 4.263-10.766 4.064v0c-2.491-0.124-4.819-0.866-6.984-2.228v0c-1.066-0.669-2.151-1.597-3.255-2.784-1.108-1.192-1.998-2.642-2.669-4.348-0.676-1.712-1-3.447-0.974-5.204zM46.994 222.041v0c-0.949 0.882-1.673 1.855-2.172 2.918-0.504 1.058-0.783 2.134-0.836 3.227v0c-0.089 2.314 0.74 4.41 2.485 6.288v0c1.665 1.79 3.578 2.692 5.74 2.705v0c2.224-0.008 4.367-0.972 6.43-2.89v0c1.941-1.805 3.07-3.839 3.388-6.102v0c0.333-2.423-0.417-4.619-2.25-6.59v0c-1.778-1.912-3.892-2.776-6.342-2.593v0c-2.3 0.17-4.447 1.182-6.443 3.037zM83.561 267.056l-0.072 0.031c-0.374-0.246-1.016-0.597-1.925-1.051v0l-2.06-1.028c-0.339-0.169-0.651-0.31-0.936-0.423v0l0-0.044c0.092-0.065 0.166-0.155 0.223-0.268 0.056-0.113 0.107-0.236 0.151-0.37 0.044-0.134 0.102-0.383 0.173-0.748 0.08-0.368 0.178-0.906 0.294-1.614v0l0.466-2.897 2.883-23.219c0.755 0.436 1.73 0.953 2.924 1.549 1.201 0.599 1.994 0.936 2.38 1.011v0l-2.862 19.832 13.4-14.482c0.725 0.421 1.637 0.907 2.737 1.456v0c1.498 0.748 2.395 1.136 2.693 1.166v0l-16.693 16.346c0 0-0.583 0.618-1.751 1.855v0c-0.986 1.067-1.571 1.785-1.754 2.153-0.184 0.368-0.274 0.617-0.271 0.745zM113.385 277.409l5.906-27.289c1.352 0.347 2.174 0.552 2.467 0.615v0l1.471 0.318c0.721 0.156 1.31 0.229 1.767 0.22v0l-5.942 27.362zM150.339 274.644l8.522-0.537c0.869-0.055 1.463-0.175 1.785-0.362v0l0.091 0.014 0.121 5.254-15.653 0.987-1.761-27.925c0.38 0.003 0.799-0.004 1.257-0.02v0l1.464-0.052c0.976-0.035 2.038-0.089 3.185-0.161v0c3.189-0.201 6.338-0.453 9.448-0.755v0c-0.076 1.23-0.049 2.869 0.08 4.917v0c0.014 0.225 0.038 0.394 0.072 0.505v0l-0.036 0.062c-0.736-0.167-1.774-0.208-3.113-0.123v0l-6.584 0.415 0.337 5.33 4.952-0.312c1.532-0.097 2.45-0.198 2.757-0.304v0l0.385 5.158c-0.674-0.024-1.541-0.003-2.602 0.064v0l-5.181 0.327zM218.321 256.044l-1.658 1.087c-1.717 1.125-2.832 1.908-3.346 2.348v0l-15.401-23.492c0.327-0.119 0.929-0.466 1.808-1.042 0.883-0.579 1.894-1.273 3.031-2.082v0l12.554 19.15 3.626-2.377c1.05-0.688 1.865-1.274 2.445-1.758v0c1.709 2.788 2.598 4.235 2.667 4.341v0l0.115 0.175c-1.194 0.663-3.14 1.88-5.841 3.65zM238.987 229.017l3.606 5.41c-0.841 0.867-1.762 1.925-2.764 3.174v0l-1.035 1.29-14.197-23.067c-0.643-1.035-1.037-1.611-1.182-1.728-0.145-0.116-0.242-0.181-0.291-0.195v0l-0.012-0.048c0.596-0.68 1.213-1.416 1.849-2.209v0c0.524-0.653 1.143-1.446 1.858-2.38v0l0.044 0.01c0.03 0.058 0.084 0.118 0.161 0.18v0c0.202 0.162 0.882 0.44 2.041 0.833v0l25.74 8.745c-0.185 0.209-0.394 0.459-0.627 0.749v0c0 0-0.239 0.277-0.717 0.83v0c-0.216 0.269-0.412 0.513-0.586 0.731v0l-2.033 2.533-5.931-2.241zM236.068 224.631l3.903-4.865-9.57-3.629zM269.706 182.595c0.384 1.257 0.485 2.725 0.304 4.402-0.177 1.686-0.701 3.636-1.572 5.85-0.87 2.213-2 4.489-3.39 6.826v0l-25.67-10.091c0.59-2.68 1.248-4.945 1.975-6.793 0.727-1.849 1.501-3.3 2.322-4.355 0.813-1.051 1.667-1.836 2.564-2.355v0c1.737-1.023 3.524-1.174 5.359-0.452 1.836 0.722 3.098 1.989 3.785 3.801v0c1.111-1.391 2.527-2.251 4.248-2.581v0c1.548-0.305 3.069-0.164 4.566 0.424 1.502 0.591 2.699 1.314 3.589 2.171 0.893 0.851 1.533 1.902 1.92 3.153zM245.016 185.835l6.075 2.388c0.307-0.508 0.62-1.169 0.941-1.986 0.323-0.822 0.48-1.539 0.47-2.149-0.01-0.611-0.12-1.121-0.329-1.532v0c-0.347-0.679-0.997-1.205-1.949-1.58v0c-1.985-0.78-3.436-0.002-4.355 2.335v0c-0.389 0.989-0.673 1.83-0.853 2.524zM256.388 186.975v0c-0.43 1.094-0.734 2.085-0.911 2.972v0l7.651 3.007c0.592-0.816 1.085-1.726 1.479-2.727 0.391-0.995 0.616-1.921 0.674-2.776 0.058-0.855-0.018-1.624-0.229-2.306v0c-0.446-1.389-1.331-2.343-2.654-2.863v0c-2.405-0.945-4.408 0.619-6.01 4.693z" fill="#000000" data-fill-palette-color="primary"></path><path d="M16.462 99.416L32.992 105.539C32.68 106.132 32.195 107.32 31.535 109.101V109.101L30.96 110.652 4.993 101.033C5.349 100.223 5.714 99.317 6.085 98.314 6.454 97.317 6.663 96.591 6.712 96.134V96.134L20.254 93.712 11.464 83.305C11.722 82.933 12.068 82.161 12.502 80.99 12.934 79.825 13.279 78.816 13.539 77.963V77.963L39.506 87.582 38.928 89.142C38.268 90.924 37.863 92.141 37.713 92.794V92.794L20.268 86.332 29.301 96.914ZM49.384 68.606C47.649 68.709 45.911 68.452 44.172 67.836 42.443 67.22 40.84 66.227 39.364 64.859 37.888 63.49 36.721 61.945 35.861 60.224 35.002 58.503 34.5 56.715 34.354 54.859 34.205 53.008 34.44 51.152 35.061 49.29 35.682 47.429 36.744 45.687 38.248 44.065V44.065C40.846 41.264 43.918 39.724 47.466 39.444V39.444C51.253 39.142 54.749 40.476 57.954 43.449V43.449C61.062 46.33 62.668 49.781 62.773 53.801V53.801C62.833 56.276 62.269 58.634 61.079 60.874V60.874C60.495 61.972 59.655 63.113 58.557 64.297 57.459 65.481 56.091 66.468 54.452 67.258 52.813 68.049 51.124 68.498 49.384 68.606ZM43.083 60.439V60.439C44.028 61.315 45.041 61.961 46.124 62.376 47.207 62.8 48.291 62.994 49.375 62.958V62.958C51.676 62.881 53.691 61.909 55.421 60.044V60.044C57.07 58.266 57.821 56.308 57.674 54.17V54.17C57.502 51.972 56.391 49.922 54.34 48.02V48.02C52.411 46.231 50.318 45.264 48.061 45.119V45.119C45.634 44.962 43.513 45.862 41.697 47.82V47.82C39.935 49.72 39.239 51.878 39.607 54.294V54.294C39.947 56.557 41.105 58.605 43.083 60.439ZM93.111 38.512L93.102 38.583C92.68 38.735 92.018 39.037 91.115 39.49V39.49L89.075 40.512C88.743 40.679 88.446 40.843 88.185 41.003V41.003L88.149 40.977C88.152 40.864 88.127 40.754 88.073 40.647 88.016 40.534 87.948 40.42 87.868 40.304 87.787 40.188 87.622 39.992 87.372 39.716 87.128 39.437 86.76 39.043 86.266 38.532V38.532L84.245 36.435 67.535 20.334C68.325 19.997 69.314 19.531 70.502 18.936 71.689 18.341 72.424 17.909 72.706 17.641V17.641L86.749 31.713 83.231 12.466C83.997 12.141 84.927 11.705 86.02 11.157V11.157C87.504 10.413 88.343 9.929 88.536 9.706V9.706L91.581 32.68C91.581 32.68 91.727 33.513 92.02 35.18V35.18C92.283 36.593 92.507 37.484 92.691 37.853 92.873 38.215 93.013 38.435 93.111 38.512ZM117.881 29.865L111.998 2.805C113.36 2.564 114.183 2.412 114.469 2.35V2.35L115.929 2.032C116.644 1.877 117.206 1.697 117.617 1.492V1.492L123.5 28.643ZM149.531 23.063L157.985 23.592C158.84 23.645 159.439 23.599 159.781 23.454V23.454L159.869 23.48 159.335 28.668 143.81 27.697 145.542 0C145.919 0.05 146.332 0.096 146.782 0.137V0.137L148.231 0.268C149.198 0.355 150.248 0.434 151.382 0.505V0.505C154.544 0.703 157.677 0.842 160.78 0.923V0.923C160.552 2.133 160.374 3.753 160.247 5.782V5.782C160.233 6.001 160.236 6.167 160.256 6.282V6.282L160.212 6.339C159.502 6.088 158.484 5.921 157.158 5.838V5.838L150.634 5.43 150.304 10.711 155.217 11.018C156.735 11.113 157.649 11.131 157.959 11.07V11.07L157.699 16.186C157.04 16.078 156.187 15.991 155.14 15.926V15.926L149.998 15.604ZM206.425 48.164L204.775 47.081C203.07 45.962 201.917 45.256 201.314 44.964V44.964L216.604 21.673C216.838 21.922 217.394 22.335 218.271 22.911 219.143 23.483 220.171 24.126 221.355 24.84V24.84L208.892 43.824 212.491 46.187C213.529 46.868 214.386 47.379 215.061 47.719V47.719C213.199 50.374 212.233 51.755 212.163 51.86V51.86L212.049 52.035C210.97 51.208 209.096 49.918 206.425 48.164ZM231.456 63.156L225.437 65.475C224.781 64.477 223.958 63.358 222.965 62.119V62.119L221.937 60.835 247.335 52.058C248.47 51.668 249.112 51.413 249.263 51.292 249.408 51.176 249.492 51.1 249.515 51.065V51.065L249.558 51.055C250.088 51.78 250.668 52.537 251.299 53.325V53.325C251.819 53.973 252.452 54.742 253.199 55.633V55.633L253.181 55.673C253.123 55.686 253.055 55.723 252.977 55.786V55.786C252.77 55.952 252.356 56.551 251.736 57.584V57.584L237.714 80.626C237.55 80.4 237.352 80.142 237.119 79.852V79.852C237.119 79.852 236.903 79.561 236.471 78.979V78.979C236.255 78.71 236.062 78.468 235.892 78.256V78.256L233.88 75.744 237.325 70.482ZM236.335 61.277L240.198 66.099 245.778 57.62ZM253.219 109.863C252.094 109.213 251.032 108.216 250.035 106.873 249.029 105.526 248.096 103.755 247.235 101.56 246.372 99.358 245.656 96.941 245.089 94.31V94.31L270.555 84.327C271.939 86.674 272.99 88.763 273.707 90.594 274.427 92.431 274.846 94.008 274.962 95.325 275.073 96.645 274.98 97.791 274.683 98.763V98.763C274.11 100.686 272.911 102.005 271.086 102.72 269.268 103.433 267.498 103.36 265.777 102.5V102.5C265.904 104.263 265.454 105.845 264.427 107.247V107.247C263.51 108.512 262.306 109.437 260.816 110.021 259.331 110.603 257.976 110.885 256.748 110.867 255.523 110.854 254.347 110.52 253.219 109.863ZM268.991 90.848L262.96 93.212C263.081 93.793 263.3 94.488 263.618 95.298 263.935 96.109 264.305 96.734 264.728 97.175 265.142 97.612 265.565 97.91 265.998 98.068V98.068C266.712 98.324 267.539 98.267 268.479 97.899V97.899C270.446 97.128 270.975 95.582 270.066 93.263V93.263C269.683 92.286 269.324 91.481 268.991 90.848ZM259.946 97.701V97.701C259.522 96.618 259.076 95.691 258.609 94.918V94.918L251.011 97.896C251.136 98.889 251.394 99.883 251.784 100.879 252.172 101.868 252.632 102.694 253.162 103.357 253.699 104.017 254.276 104.522 254.891 104.873V104.873C256.148 105.586 257.435 105.685 258.753 105.168V105.168C261.134 104.235 261.532 101.746 259.946 97.701Z" fill="#000000" data-fill-palette-color="primary"></path><path d="M12.18 142.98c0-1.78 1.443-3.224 3.224-3.223 1.78 0 3.224 1.443 3.224 3.223 0 1.78-1.443 3.224-3.224 3.224-1.78 0-3.224-1.443-3.224-3.224zM263.293 142.98c0-1.78 1.443-3.224 3.224-3.223 1.78 0 3.224 1.443 3.224 3.223 0 1.78-1.443 3.224-3.224 3.224-1.78 0-3.224-1.443-3.224-3.224z" fill="#000000" data-fill-palette-color="primary"></path></svg></g></svg></g></svg></g><g></g></svg></g><defs></defs></svg><rect width="280" height="280" fill="none" stroke="none" visibility="hidden"></rect></g></svg></g></svg>